<svg xmlns="http://www.w3.org/2000/svg" viewBox="0 0 64 64" id="delivery-map">
  <circle cx="32" cy="32" r="32" fill="#233551"></circle>
  <path fill="#fff" d="m31.88 49.48.12.17.12-.17c.48-.67 1.49-2.09 2.78-4.01 4.12-6.11 11.02-17.17 11.02-22.54C45.93 15.25 39.68 9 32 9s-13.93 6.25-13.93 13.93c0 3.97 3.91 11.97 11.02 22.54 1.39 2.04 2.42 3.49 2.79 4.01zm-8.57-26.55c0-4.8 3.9-8.7 8.7-8.7s8.7 3.9 8.7 8.7-3.9 8.7-8.7 8.7-8.7-3.91-8.7-8.7z"></path>
  <path fill="#fff" d="m35.78 46.42-.09-.01-.05.07c-.29.43-.57.83-.83 1.21l-.15.21c-.06.09-.12.18-.19.27l-.11.15a132.963 132.963 0 0 1-1.9 2.68c-.11.15-.29.24-.48.24s-.36-.09-.47-.24l-.07-.09c-.21-.28-.89-1.21-1.84-2.58l-.11-.16c-.06-.09-.12-.18-.19-.27-.1-.14-.2-.29-.31-.45-.08-.1-.15-.21-.22-.32l-.49-.71-.08.01c-7.19.56-11.49 2.58-11.49 4.22C16.74 52.7 23 55 32 55s15.27-2.3 15.27-4.36c-.01-1.64-4.3-3.66-11.49-4.22z"></path>
  <path fill="#edb623" d="M36.67 18.8h-2.45v3.23c0 .14-.08.28-.22.37-.04.03-.11.05-.19.05s-.14-.01-.2-.04L32 21.57l-1.61.83c-.06.03-.13.05-.19.05a.37.37 0 0 1-.21-.06.42.42 0 0 1-.2-.36V18.8h-2.46v8.24h9.34V18.8z"></path>
  <path fill="#fff" d="M32 20.68c.06 0 .13.02.19.04l1.2.63V18.8h-2.78v2.56l1.19-.63c.07-.03.14-.05.2-.05z"></path>
</svg>
